<?xml version="1.0" encoding="utf-8"?>
<svg viewBox="0 0 500 500" xmlns="http://www.w3.org/2000/svg">
  <defs>
    <linearGradient id="Degradado_sin_nombre_30" x1="405.47" y1="568.86" x2="457.8" y2="502.89" gradientUnits="userSpaceOnUse" gradientTransform="matrix(7.901895, 0, 0, 8.637267, -3104.938453, -4414.511485)">
      <stop offset="0" stop-color="#76232f"/>
      <stop offset="0.17" stop-color="#79252f"/>
      <stop offset="0.3" stop-color="#832a30"/>
      <stop offset="0.42" stop-color="#943430"/>
      <stop offset="0.53" stop-color="#ab4132"/>
      <stop offset="0.64" stop-color="#ca5233"/>
      <stop offset="0.69" stop-color="#dc5d34"/>
    </linearGradient>
  </defs>
  <path class="cls-2" d="M 495.164 488.178 C 494.5 485.466 492.674 483.272 490.264 482.305 C 439.297 460.193 387.54 399.128 386.75 398.523 C 380.349 391.786 374.581 385.135 369.207 378.485 C 373 375.721 376.714 372.784 380.349 369.847 C 399.322 353.929 415.086 333.899 426.654 311.028 C 426.615 310.734 426.615 310.449 426.654 310.164 C 431.158 312.107 435.955 313.109 440.799 313.101 C 470.604 312.652 488.787 277.109 473.536 249.116 C 467.175 237.455 456.089 229.837 443.722 228.628 C 442.679 204.841 436.705 181.633 426.259 160.739 C 415.576 139.613 401.313 120.913 384.221 105.633 C 393.94 92.246 401.131 82.658 402.632 80.845 L 403.107 80.326 C 455.654 14.51 453.521 11.228 450.518 7.687 C 449.491 6.305 447.199 4.491 442.616 7.687 C 441.32 8.49 440.19 9.578 439.297 10.883 C 418.025 40.569 394.644 68.381 369.365 94.06 C 353.143 82.123 335.49 72.7 316.897 66.075 L 311.84 64.347 C 312.156 61.851 312.314 59.346 312.314 56.833 C 312.954 18.268 275.159 -6.591 244.286 12.083 C 229.96 20.755 220.952 37.114 220.652 55.019 C 205.488 56.703 190.506 60.003 175.927 64.866 C 161.625 69.659 147.828 76.085 134.758 84.04 C 97.145 53.464 67.434 27.812 62.693 23.579 C 61.587 22.647 60.283 22.016 58.9 21.766 C 55.186 21.075 52.816 21.766 51.709 24.789 C 49.813 29.366 54.08 33.426 59.611 37.658 L 61.587 39.472 L 119.033 94.146 C 116.821 95.787 114.687 97.514 112.554 99.242 C 93.147 115.195 76.995 135.406 65.142 158.58 L 64.747 159.357 C 60.978 158.312 57.098 157.785 53.211 157.803 C 17.842 155.574 -6.472 196.031 9.45 230.632 C 16.838 246.689 31.504 257.218 47.916 258.254 C 50.524 277.213 56.198 295.524 64.668 312.323 C 71.93 326.687 80.946 339.902 91.456 351.623 C 62.298 377.535 55.344 387.295 54.001 389.627 C 13.859 435.577 15.993 441.019 17.415 444.646 C 18.324 446.926 20.434 448.369 22.709 448.274 C 25.467 448.274 28.035 446.788 29.584 444.301 C 49.671 413.034 74.277 385.559 102.439 362.938 C 105.6 365.961 108.84 368.897 112.159 371.575 C 131.447 387.355 153.106 399.344 176.164 406.988 C 188.681 411.09 201.505 413.984 214.488 415.625 C 220.944 442.919 252.006 452.333 270.41 432.58 C 274.906 427.752 278.067 421.637 279.521 414.934 C 292.267 412.93 304.823 409.726 317.055 405.347 C 330.385 400.613 343.25 394.455 355.458 386.949 C 415.908 457.257 442.379 473.322 443.722 474.013 C 473.117 491.978 484.18 496.038 489.158 496.038 C 490.636 496.09 492.074 495.537 493.188 494.483 C 494.927 492.989 495.701 490.519 495.164 488.178 Z M 288.924 28.589 C 298.659 28.52 304.807 39.99 299.995 49.241 C 295.182 58.483 283.014 58.569 278.099 49.388 C 276.945 47.246 276.344 44.801 276.36 42.322 C 276.408 34.756 282.002 28.632 288.924 28.589 Z M 179.483 75.317 C 193.232 70.385 207.392 66.964 221.758 65.125 C 228.001 103.077 269.485 119.419 296.439 94.535 C 302.737 88.713 307.486 81.155 310.18 72.639 L 314.763 74.107 C 332.219 79.912 348.868 88.307 364.229 99.069 C 341.235 122.39 323.771 137.851 323.376 138.196 C 283.867 174.904 244.357 164.885 229.344 154.52 L 224.998 151.584 C 218.36 147.092 202.952 136.555 201.292 135.432 C 182.328 121.094 162.968 105.893 145.031 91.468 C 156.022 84.895 167.559 79.488 179.483 75.317 Z M 101.096 343.072 C 91.069 331.878 82.535 319.199 75.731 305.413 C 68.208 290.445 63.127 274.172 60.717 257.304 C 95.533 250.645 110.705 205.299 88.026 175.664 C 84.621 171.225 80.543 167.459 75.968 164.54 C 86.896 143.119 101.712 124.368 119.507 109.434 C 122.194 107.188 124.881 105.029 127.409 102.87 L 144.794 120.144 C 162.921 139.371 178.558 161.223 191.257 185.096 C 196.677 196.04 198.574 208.667 196.63 220.941 C 188.333 271.21 140.843 310.682 140.448 311.028 C 124.802 323.638 111.685 334.348 101.096 343.417 L 101.096 343.072 Z M 314.447 396.796 C 303.25 400.683 291.777 403.567 280.153 405.433 C 276.976 377.517 247.344 363.836 226.823 380.8 C 219.711 386.682 215.041 395.422 213.856 405.088 C 202.256 403.222 190.814 400.337 179.641 396.45 C 157.966 388.824 137.674 377.129 119.666 361.901 L 112.475 355.596 C 124.091 346.397 136.204 337.976 148.745 330.375 C 247.202 276.479 317.529 343.504 325.273 351.277 L 326.379 352.573 C 334.913 363.11 342.815 372.784 350.085 381.594 C 338.785 387.977 326.964 393.185 314.763 397.141 L 314.447 396.796 Z M 311.049 249.962 C 311.049 249.962 311.049 249.444 311.049 249.012 C 309.777 238.717 310.48 228.24 313.104 218.263 C 318.398 198.311 354.984 145.192 379.796 110.816 C 396.342 125.206 410.163 142.99 420.491 163.158 C 430.502 182.989 436.287 205.048 437.401 227.678 C 407.753 230.338 391.862 267.081 408.796 293.814 C 411.933 298.763 416.002 302.926 420.728 306.018 L 420.728 306.623 C 409.491 328.535 394.177 347.632 375.766 362.679 C 372.052 365.788 367.864 368.725 364.229 371.316 C 315.554 308.868 311.524 253.244 311.366 250.653 L 311.049 249.962 Z" style="fill: url(#Degradado_sin_nombre_30);"/>
</svg>